<?xml version="1.0" encoding="utf-8"?>
<!-- Generator: Adobe Illustrator 27.2.0, SVG Export Plug-In . SVG Version: 6.00 Build 0)  -->
<svg version="1.1" id="Capa_1" xmlns="http://www.w3.org/2000/svg" xmlns:xlink="http://www.w3.org/1999/xlink" x="0px" y="0px"
	 viewBox="0 0 461 480.5" style="enable-background:new 0 0 461 480.5;" xml:space="preserve">
<style type="text/css">
	.st0{fill:none;}
	.st1{fill:#FFFFFF;}
</style>
<path class="st1" d="M353.6,13.04c5.88,6.53,28.4,67.24,28.4,76.05c0,10.12-8.49,15.34-28.4,17.95
	c-36.23,4.24-120.44,21.54-177.24,36.56c-67.24,17.63-78.99,19.58-83.89,13.38c-6.2-7.51-24.48-77.68-22.52-86.17
	c1.31-4.24,6.2-9.79,11.1-12.4C104.87,46.33,293.21,8.14,331.73,7.82C343.48,7.49,349.68,9.12,353.6,13.04z M427.36,152.09
	c5.22,6.53,26.44,66.59,26.44,75.4c0,4.24-1.96,9.14-3.92,11.1c-2.28,1.63-28.4,7.83-58.1,13.71
	c-118.81,22.52-219.35,52.55-318.25,94.66c-31.99,13.71-36.56,14.69-43.41,10.12c-4.9-2.94-20.24-66.91-20.24-83.23
	c0-15.34,5.22-19.91,34.6-32.64c83.56-35.25,192.58-66.26,301.6-85.19C397.34,147.19,422.14,145.89,427.36,152.09z M430.3,303.87
	c7.51,9.79,26.44,73.12,23.5,80.3c-1.63,5.22-8.16,8.49-24.81,12.73c-58.75,15.34-122.4,33.95-175.28,51.57
	c-31.99,10.45-61.69,19.26-65.61,19.26c-11.75,0-16.65-8.49-28.07-47.98c-14.69-50.27-15.67-48.63,41.45-67.57
	c78.34-25.46,206.62-57.77,218.04-55.16C423.12,297.99,428.02,300.93,430.3,303.87z"/>
</svg>
